# xmcd CD database file
#
# Track frame offsets:
#	150
#	14501
#	27468
#	66956
#	83600
#	98389
#	111277
#	124823
#	137523
#	148564
#	160974
#	173475
#	186200
#	200602
#	215430
#	228887
#	242141
#	254086
#	265846
#	281282
#
# Disc length: 3953 seconds
#
# Revision: 0
# Processed by: cddbd v1.5.1PL0 Copyright (c) Steve Scherf et al.
# Submitted via: CDex 1.51
#
DISCID=190f6f14
DTITLE=Benny Goodman - The Benny Goodman Collection
DYEAR=1900
DGENRE=Jazz
TTITLE0=The King Porter Stomp
TTITLE1=The Kingdom Of Swing
TTITLE2=Sing, Sing, Sing
TTITLE3=Sometimes I'm Happy
TTITLE4=Smoke Dreams
TTITLE5=Sugar Foot Stomp
TTITLE6=Smoke House Rhythm
TTITLE7=Make Believe
TTITLE8=My Melancholy Baby
TTITLE9=These Foolish Things Remind Me Of You
TTITLE10=He Ain't Got Rhythm
TTITLE11=Nobody's Sweetheart
TTITLE12=Thanks For The Money
TTITLE13=Stompin' At The Savoy
TTITLE14=Topsy
TTITLE15=Basin Street Blues
TTITLE16=Sandman
TTITLE17=Lazy River
TTITLE18=Goodbye
TTITLE19=Goodnight My Love
EXTD=
EXTT0=
EXTT1=
EXTT2=
EXTT3=
EXTT4=
EXTT5=
EXTT6=
EXTT7=
EXTT8=
EXTT9=
EXTT10=
EXTT11=
EXTT12=
EXTT13=
EXTT14=
EXTT15=
EXTT16=
EXTT17=
EXTT18=
EXTT19=
PLAYORDER=
